PathFileType	4	(X/Y/Z)	./resultDataOpenSim/trcMotMarkerGrf/sub10/qtm-04-04.trc
DataRate	CameraRate	NumFrames	NumMarkers	Units	OrigDataRate	OrigDataStartFrame	OrigNumFrames
250.000000	250.000000	10	24	m	250.000000	131	520
Frame#	Time	L.Toe.Tip			R.Toe.Tip			L.Ankle.Lat			R.Ankle.Lat			L.Ankle.Med			R.Ankle.Med			L.Heel			R.Heel			L.Knee.Lat			R.Knee.Lat			L.Knee.Med			R.Knee.Med			L.Thigh.Upper			R.Thigh.Upper			L.ASIS			R.ASIS			V.Sacral			L.Acromium			R.Acromium			C7			L.Elbow			R.Elbow			L.Wrist.Lat			R.Wrist.Lat
		X1	Y1	Z1	X2	Y2	Z2	X3	Y3	Z3	X4	Y4	Z4	X5	Y5	Z5	X6	Y6	Z6	X7	Y7	Z7	X8	Y8	Z8	X9	Y9	Z9	X10	Y10	Z10	X11	Y11	Z11	X12	Y12	Z12	X13	Y13	Z13	X14	Y14	Z14	X15	Y15	Z15	X16	Y16	Z16	X17	Y17	Z17	X18	Y18	Z18	X19	Y19	Z19	X20	Y20	Z20	X21	Y21	Z21	X22	Y22	Z22	X23	Y23	Z23	X24	Y24	Z24

131	0.52	-0.41134713	0.071475954	-0.1286527	-0.72632982	0.039947385	0.029801561	-0.54112905	0.10536228	-0.1461469	-0.87003945	0.05430244	0.052649505	-0.52626555	0.12360754	-0.062687684	-0.84343787	0.08007538	-0.029614613	-0.60373529	0.075718704	-0.09809631	-0.91760516	0.030527638	0.00025778082	-0.46605527	0.48910446	-0.1586517	-0.7552268	0.44131511	0.10080761	-0.45090739	0.46388097	-0.039250414	-0.73717284	0.44480504	-0.027341273	-0.62611682	0.82996892	-0.21269984	-0.71885305	0.85561036	0.16141539	-0.5977328	0.93987553	-0.13804065	-0.6335062	0.94262001	0.10465981	-0.81365962	0.95108388	-0.053046691	-0.65788839	1.4153083	-0.16074286	-0.69303672	1.3995754	0.15892863	-0.75526887	1.4368292	-0.012805831	-0.79260693	1.1037038	-0.26087332	-0.74131293	1.0454359	0.20679953	-0.63626744	0.90765888	-0.26929838	-0.55829484	0.88264008	0.24282684
132	0.524	-0.39373457	0.071473428	-0.12535588	-0.72636872	0.039891933	0.029736212	-0.52415031	0.10202862	-0.14488909	-0.86998584	0.05429945	0.052577921	-0.5104918	0.12097936	-0.061291705	-0.84334233	0.080055102	-0.029683561	-0.58641982	0.07107664	-0.098350004	-0.91761499	0.030579114	0.00018339666	-0.45967935	0.48809757	-0.15815037	-0.75358542	0.44097111	0.10090109	-0.44549487	0.46327203	-0.03876239	-0.73511856	0.44445073	-0.027132399	-0.62020234	0.82938099	-0.21217175	-0.71514644	0.85495454	0.16154546	-0.59199216	0.93924142	-0.1372415	-0.62968762	0.94180961	0.10532047	-0.80756926	0.95029772	-0.053205453	-0.65300035	1.4143507	-0.1604299	-0.68812167	1.398696	0.15927085	-0.75041477	1.4359916	-0.012467584	-0.78879258	1.1033446	-0.26054584	-0.73447703	1.0442555	0.20816904	-0.63423173	0.90610023	-0.27026861	-0.54914017	0.88358491	0.24262797
133	0.528	-0.37620715	0.071497134	-0.12189187	-0.72642378	0.039812385	0.029670244	-0.50710193	0.098845562	-0.1436398	-0.86992274	0.054297868	0.052521849	-0.49488687	0.11854739	-0.059948821	-0.84324821	0.080041414	-0.029749115	-0.56916132	0.066693674	-0.098473181	-0.91762532	0.030641255	9.7338031e-05	-0.45347061	0.48693392	-0.15767358	-0.75188194	0.44062381	0.10101329	-0.44019623	0.4624784	-0.038251814	-0.73316769	0.44409814	-0.026993537	-0.61421055	0.82874325	-0.21165155	-0.71139986	0.85428283	0.1616763	-0.58622791	0.93853861	-0.13642374	-0.62555342	0.9410182	0.10598017	-0.80136373	0.94941297	-0.053015929	-0.64800272	1.413339	-0.16011316	-0.68322884	1.397763	0.15961372	-0.7455403	1.4351073	-0.012149085	-0.7849209	1.102929	-0.26021914	-0.72761219	1.0430338	0.20951828	-0.6322259	0.90449944	-0.2712255	-0.5400228	0.88450687	0.24241526
134	0.532	-0.35877977	0.071564667	-0.1182487	-0.72647019	0.039742268	0.029620876	-0.49001009	0.095814176	-0.14240474	-0.86984998	0.054301932	0.052470622	-0.47958434	0.1163828	-0.058699369	-0.84313459	0.080043691	-0.029796893	-0.55211671	0.062595239	-0.098333039	-0.91763425	0.030709065	1.1063333e-05	-0.44745322	0.48560893	-0.15723754	-0.75011357	0.44027209	0.10113287	-0.43502095	0.46149284	-0.037732178	-0.73125109	0.44376128	-0.026887061	-0.60801881	0.82807374	-0.21112466	-0.70761417	0.85359179	0.16180224	-0.58044257	0.9377679	-0.13559403	-0.62104429	0.94026108	0.10664797	-0.79509002	0.94843852	-0.052631441	-0.64283909	1.4122763	-0.15978728	-0.67837001	1.3967785	0.1599586	-0.7406454	1.4341803	-0.011858327	-0.78103547	1.1024597	-0.25992403	-0.72072921	1.0417781	0.21084231	-0.63028599	0.90285441	-0.27218114	-0.53095972	0.88540722	0.24219022
135	0.536	-0.341484	0.071673378	-0.11445287	-0.7264874	0.039699833	0.029599325	-0.47292104	0.092948752	-0.1411884	-0.86976755	0.05431106	0.052412038	-0.46464201	0.11441141	-0.057644194	-0.84299891	0.080059599	-0.029827525	-0.53527022	0.058768924	-0.098043881	-0.91763917	0.030781264	-6.5126657e-05	-0.44160248	0.48412491	-0.15683	-0.74830549	0.43990543	0.10124009	-0.42997264	0.46030639	-0.037215902	-0.72931232	0.44344309	-0.026789345	-0.60178782	0.82734019	-0.21060694	-0.7037874	0.852878	0.16191879	-0.57461957	0.93694007	-0.13475668	-0.61636775	0.93950897	0.10731582	-0.78888418	0.94735743	-0.05238632	-0.63759158	1.4111689	-0.15946032	-0.67352025	1.3957468	0.16029216	-0.73573253	1.4332143	-0.011591188	-0.77714744	1.1019449	-0.25961329	-0.71383396	1.0404948	0.21213764	-0.62844164	0.90117181	-0.27315363	-0.52195275	0.88628523	0.2419529
136	0.54	-0.32434433	0.071798607	-0.11054395	-0.72647808	0.039673981	0.029598581	-0.4558745	0.090278171	-0.14000792	-0.86967814	0.054315683	0.05233453	-0.45005936	0.11250734	-0.056884011	-0.84286182	0.080069885	-0.029870289	-0.51847331	0.055201396	-0.097800619	-0.91763801	0.030862421	-0.00012852617	-0.43586833	0.48249459	-0.1564271	-0.74649449	0.43951121	0.10132517	-0.4250481	0.4589115	-0.036709148	-0.72731815	0.44313775	-0.026689122	-0.59572512	0.82649796	-0.210105	-0.6999099	0.85213561	0.16201504	-0.56873775	0.93606738	-0.13391051	-0.61175315	0.93872715	0.10797546	-0.78268838	0.94609773	-0.052383024	-0.63240604	1.410017	-0.15914802	-0.66866558	1.3946742	0.16061443	-0.73081945	1.4322082	-0.011336234	-0.77323845	1.1013939	-0.25917472	-0.70692872	1.0391863	0.21340207	-0.62667453	0.89947003	-0.27414261	-0.51300135	0.8871375	0.24170409
137	0.544	-0.30737631	0.071904606	-0.1065529	-0.72645997	0.039634738	0.029601779	-0.43889197	0.08782726	-0.13888348	-0.86959942	0.054305554	0.052236677	-0.43571591	0.1106223	-0.056386602	-0.84274782	0.080054899	-0.029957217	-0.50162	0.051914029	-0.097719386	-0.91763152	0.030956965	-0.00018863178	-0.43019056	0.48073441	-0.1560069	-0.74469947	0.43908083	0.10138392	-0.42023715	0.45730577	-0.036210315	-0.72525275	0.44283188	-0.026579469	-0.58983708	0.82553852	-0.20960045	-0.69595614	0.8513509	0.16206365	-0.56279556	0.9351555	-0.1330533	-0.60728162	0.93789992	0.10863067	-0.77601267	0.94453749	-0.052443881	-0.62734021	1.4088148	-0.15886206	-0.6638169	1.3935686	0.16094136	-0.72595137	1.4311576	-0.011078597	-0.76927247	1.100817	-0.25845919	-0.70001509	1.0378524	0.21463506	-0.62491079	0.8977648	-0.27512311	-0.50410927	0.88796041	0.24144449
138	0.548	-0.29060258	0.071953551	-0.10250535	-0.72645064	0.039556075	0.029595543	-0.42198562	0.085605197	-0.13782502	-0.86956041	0.054293431	0.052141983	-0.42133198	0.1088152	-0.055943562	-0.84265383	0.080018968	-0.030078424	-0.48472334	0.048957292	-0.097804724	-0.91762399	0.031063776	-0.00025973583	-0.42453115	0.47885539	-0.15555185	-0.74289729	0.43861268	0.10141529	-0.41552557	0.45549197	-0.035712381	-0.72312891	0.44250433	-0.026464123	-0.5840028	0.82448178	-0.20907929	-0.69188361	0.85049992	0.16202207	-0.5568099	0.93420329	-0.13218919	-0.60291091	0.93702362	0.10928637	-0.76840046	0.9426189	-0.052411416	-0.62233754	1.407558	-0.15860405	-0.65897952	1.3924357	0.16127532	-0.72117667	1.4300608	-0.010802377	-0.76521997	1.1002222	-0.25735161	-0.69309528	1.0364924	0.21583799	-0.62306938	0.8960598	-0.27606541	-0.49527897	0.88875366	0.24117439
139	0.552	-0.27405278	0.071916954	-0.098428479	-0.72645627	0.039441414	0.029579776	-0.40516632	0.083621863	-0.13683179	-0.86956418	0.054323642	0.052088271	-0.40666034	0.10718178	-0.055337976	-0.8425546	0.079984126	-0.030196052	-0.46787641	0.046379282	-0.09799711	-0.91761782	0.031178681	-0.00034793318	-0.41889723	0.47686446	-0.15505081	-0.74102085	0.4381206	0.10144185	-0.41090296	0.45347341	-0.035209996	-0.72100216	0.4421293	-0.026357724	-0.57814144	0.82334266	-0.20854504	-0.68764758	0.84956436	0.16184365	-0.55079738	0.93320789	-0.13133052	-0.59856732	0.9361004	0.10994017	-0.76017903	0.94049518	-0.052331747	-0.61731709	1.4062475	-0.15836754	-0.65414637	1.3912751	0.16159778	-0.71646001	1.4289179	-0.010518534	-0.76109922	1.0996017	-0.25594004	-0.68617131	1.0351069	0.21701206	-0.62110996	0.89435772	-0.27695705	-0.48650881	0.8895197	0.24089311
140	0.556	-0.25775658	0.071783472	-0.09434882	-0.72646852	0.039326847	0.02956772	-0.38845229	0.081905531	-0.13589316	-0.86956632	0.054428112	0.052084066	-0.39171338	0.10577009	-0.054541431	-0.84243373	0.079964625	-0.030291545	-0.45119227	0.044202393	-0.098236591	-0.91760563	0.031300077	-0.00045665268	-0.41331725	0.47477223	-0.1545034	-0.73900618	0.43762546	0.10150711	-0.40636812	0.4512536	-0.034704498	-0.71894217	0.4416811	-0.026270813	-0.57224142	0.82212197	-0.20800553	-0.68321875	0.84854567	0.16149246	-0.54475989	0.93216633	-0.13048728	-0.5942035	0.93513827	0.11058849	-0.75245567	0.9384921	-0.052357956	-0.61224164	1.4048882	-0.15814385	-0.64931777	1.3900791	0.16189393	-0.71161202	1.4277213	-0.010302091	-0.75698335	1.0989289	-0.25455936	-0.67924417	1.0336986	0.21815652	-0.61903715	0.89266502	-0.27781224	-0.47779901	0.89025783	0.24059907
